# This file uses centimeters as units for non-parametric coordinates.

mtllib star.mtl
g default
v -0.250000 0.000000 -0.433013
v 0.500000 0.000000 0.000000
v 0.008357 0.232784 -0.029612
v -0.319329 -0.000000 -0.590866
v -0.322345 -0.000000 0.473262
v 0.652110 -0.000000 -0.067933
v 0.018061 -0.236966 -0.091637
v -0.633542 -0.000000 -0.081648
v 0.306545 -0.000000 -0.603290
v 0.364843 -0.000000 0.451498
v -0.332957 -0.000000 -0.265929
v -0.319849 -0.000000 0.134553
v 0.027374 -0.000000 0.310957
v 0.358008 -0.000000 0.133193
v 0.313249 -0.000000 -0.291107
v 0.002166 -0.000000 -0.454764
vt 0.000000 1.000000
vt 0.666667 1.000000
vt 0.500000 0.750000
vt 0.000000 0.500000
vt 0.333333 0.500000
vt 0.666667 0.500000
vt 1.000000 0.500000
vt 0.500000 0.250000
vt 0.666667 0.000000
vt 1.000000 0.000000
vt 0.188720 0.500000
vt 0.849361 0.500000
vt 0.503708 0.500000
vt 0.085264 0.500000
vt 0.249591 0.500000
vt 0.444892 0.500000
vt 0.562487 0.500000
vt 0.773347 0.500000
vt 0.907658 0.500000
vn -0.453049 0.891452 0.007768
vn -0.552307 0.833319 -0.023163
vn -0.421241 0.871727 -0.250295
vn 0.220585 0.869014 0.442897
vn 0.249207 0.805954 0.536968
vn 0.014121 0.825859 0.563700
vn 0.201436 0.891566 -0.405628
vn 0.284003 0.856382 -0.431222
vn 0.438326 0.861607 -0.255938
vn -0.450118 -0.892744 0.020034
vn -0.446814 -0.862822 0.236423
vn -0.340992 -0.939275 0.038553
vn 0.202066 -0.887290 0.414592
vn 0.015745 -0.861850 0.506919
vn 0.227431 -0.841504 0.490047
vn 0.227121 -0.862581 -0.452074
vn 0.471110 -0.832434 -0.291734
vn 0.321494 -0.811390 -0.488147
vn 0.496159 0.123719 -0.859372
vn 0.496159 0.123719 -0.859372
vn 0.496159 0.123719 -0.859372
vn 0.496159 0.123719 -0.859372
vn -0.496159 -0.123719 0.859372
vn -0.496159 -0.123719 0.859372
vn -0.496159 -0.123719 0.859372
vn -0.496159 -0.123719 0.859372
vn -0.437910 -0.854401 -0.279704
vn -0.551457 -0.833883 -0.023128
vn -0.339074 0.940443 -0.024396
vn -0.466710 0.844123 0.263891
vn -0.009059 -0.837606 -0.546201
vn 0.153637 -0.926825 -0.342623
vn 0.117763 0.939997 -0.320216
vn -0.010706 0.877144 -0.480109
vn 0.300126 -0.846947 0.438868
vn 0.447540 -0.863315 0.233227
vn 0.450997 0.855452 0.254566
vn 0.324229 0.818591 0.474115
vn -0.576059 -0.817397 -0.004245
vn -0.579939 0.814649 -0.004274
vn 0.146983 -0.937571 0.315209
vn 0.194388 0.931720 0.306776
vn 0.228209 -0.810758 -0.539066
vn 0.200147 0.858150 -0.472779
s 1
g pTorus1
usemtl initialShadingGroup
f 3/3/1 4/4/2 11/14/3
s 2
f 3/3/4 5/5/5 13/16/6
s 3
f 3/3/7 6/6/8 15/18/9
s 4
f 7/8/10 12/15/11 8/11/12
s 5
f 7/8/13 13/16/14 5/5/15
s 6
f 7/8/16 15/18/17 6/6/18
s off
f 3/3/19 2/9/20 7/8/21 1/1/22
f 1/10/23 7/8/24 2/2/25 3/3/26
s 4
f 7/8/10 11/14/27 4/4/28
s 1
f 3/3/1 8/11/29 12/15/30
s 6
f 7/8/16 16/19/31 9/12/32
s 3
f 3/3/7 9/12/33 16/19/34
s 5
f 6/6/35 14/17/36 7/8/13
s 2
f 3/3/4 14/17/37 6/6/38
s 4
f 7/8/10 8/11/12 11/14/27
s 1
f 3/3/1 11/14/3 8/11/29
s 4
f 5/5/39 12/15/11 7/8/10
s 1
f 3/3/1 12/15/30 5/5/40
s 5
f 7/8/13 10/13/41 13/16/14
s 2
f 3/3/4 13/16/6 10/13/42
f 3/3/4 10/13/42 14/17/37
s 5
f 7/8/13 14/17/36 10/13/41
s 6
f 7/8/16 9/12/32 15/18/17
s 3
f 3/3/7 15/18/9 9/12/33
s 6
f 4/7/43 16/19/31 7/8/16
s 3
f 3/3/7 16/19/34 4/7/44
