# This file uses centimeters as units for non-parametric coordinates.

mtllib triangle.mtl
g default
v -0.500000 -1.200000 -0.866026
v -0.500000 -1.200000 0.866025
v 1.000000 -1.200000 0.000000
v -0.500000 1.200000 -0.866026
v -0.500000 1.200000 0.866025
v 1.000000 1.200000 0.000000
v 0.000000 -1.200000 0.000000
v 0.000000 1.200000 0.000000
vt 0.421875 0.020934
vt 0.421875 0.291566
vt 0.656250 0.156250
vt 0.375000 0.312500
vt 0.458333 0.312500
vt 0.541667 0.312500
vt 0.625000 0.312500
vt 0.375000 0.688440
vt 0.458333 0.688440
vt 0.541667 0.688440
vt 0.625000 0.688440
vt 0.421875 0.708434
vt 0.421875 0.979066
vt 0.656250 0.843750
vt 0.500000 0.150000
vt 0.500000 0.837500
vn -1.000000 0.000000 -0.000000
vn -1.000000 0.000000 -0.000000
vn -1.000000 0.000000 -0.000000
vn -1.000000 0.000000 -0.000000
vn 0.500000 0.000000 0.866025
vn 0.500000 0.000000 0.866025
vn 0.500000 0.000000 0.866025
vn 0.500000 0.000000 0.866025
vn 0.500000 0.000000 -0.866025
vn 0.500000 0.000000 -0.866025
vn 0.500000 0.000000 -0.866025
vn 0.500000 0.000000 -0.866025
vn 0.000000 -1.000000 0.000000
vn 0.000000 -1.000000 0.000000
vn 0.000000 -1.000000 0.000000
vn 0.000000 -1.000000 0.000000
vn 0.000000 1.000000 0.000000
vn 0.000000 1.000000 0.000000
vn 0.000000 1.000000 0.000000
vn 0.000000 1.000000 0.000000
s off
g pCylinder1
usemtl initialShadingGroup
f 1/4/1 2/5/2 5/9/3 4/8/4
f 2/5/5 3/6/6 6/10/7 5/9/8
f 3/6/9 1/7/10 4/11/11 6/10/12
s 1
f 2/2/13 1/1/14 7/15/15
f 3/3/16 2/2/13 7/15/15
f 1/1/14 3/3/16 7/15/15
s 2
f 4/13/17 5/12/18 8/16/19
f 5/12/18 6/14/20 8/16/19
f 6/14/20 4/13/17 8/16/19
